<svg width="23" height="22" viewBox="0 0 23 22" fill="none" xmlns="http://www.w3.org/2000/svg">
<g id="vuesax/bold/home">
<g id="home">
<path id="Vector" d="M19.6272 7.38406L13.6913 2.63531C12.5313 1.71094 10.7188 1.70188 9.56784 2.62625L3.6319 7.38406C2.78003 8.06375 2.26346 9.42313 2.44471 10.4925L3.58659 17.3256C3.8494 18.8572 5.27221 20.0625 6.8219 20.0625H16.4282C17.9597 20.0625 19.4097 18.83 19.6725 17.3166L20.8144 10.4834C20.9775 9.42313 20.461 8.06375 19.6272 7.38406ZM12.3047 16.4375C12.3047 16.8091 11.9966 17.1172 11.625 17.1172C11.2535 17.1172 10.9453 16.8091 10.9453 16.4375V13.7188C10.9453 13.3472 11.2535 13.0391 11.625 13.0391C11.9966 13.0391 12.3047 13.3472 12.3047 13.7188V16.4375Z" fill="#292D32"/>
</g>
</g>
</svg>
